<svg width="12" height="13" viewBox="0 0 12 13" fill="none" xmlns="http://www.w3.org/2000/svg">
<path d="M2.53587 11.6017C2.22104 11.6017 1.95275 11.4908 1.731 11.2691C1.50925 11.0473 1.39837 10.779 1.39837 10.4642V3.53594C1.39837 3.2211 1.50925 2.95281 1.731 2.73106C1.95275 2.50931 2.22104 2.39844 2.53587 2.39844H3V1.39844H4.06875V2.39844H7.93125V1.39844H9V2.39844H9.46412C9.77896 2.39844 10.0472 2.50931 10.269 2.73106C10.4908 2.95281 10.6016 3.2211 10.6016 3.53594V10.4642C10.6016 10.779 10.4908 11.0473 10.269 11.2691C10.0472 11.4908 9.77896 11.6017 9.46412 11.6017H2.53587ZM2.53587 10.4642H9.46412V5.50006H2.53587V10.4642Z" fill="#333333"/>
</svg>
