<svg width="15" height="15" viewBox="0 0 15 15" fill="none" xmlns="http://www.w3.org/2000/svg">
<path d="M7.5 8.49453L4.49734 11.4973C4.36526 11.6293 4.19948 11.6953 4 11.6953C3.80052 11.6953 3.63474 11.6293 3.50266 11.4973C3.37068 11.3653 3.30469 11.1995 3.30469 11C3.30469 10.8005 3.37068 10.6347 3.50266 10.5027L6.50547 7.5L3.50266 4.49734C3.37068 4.36526 3.30469 4.19948 3.30469 4C3.30469 3.80052 3.37068 3.63474 3.50266 3.50266C3.63474 3.37068 3.80052 3.30469 4 3.30469C4.19948 3.30469 4.36526 3.37068 4.49734 3.50266L7.5 6.50547L10.5027 3.50266C10.6347 3.37068 10.8005 3.30469 11 3.30469C11.1995 3.30469 11.3653 3.37068 11.4973 3.50266C11.6293 3.63474 11.6953 3.80052 11.6953 4C11.6953 4.19948 11.6293 4.36526 11.4973 4.49734L8.49453 7.5L11.4973 10.5027C11.6293 10.6347 11.6953 10.8005 11.6953 11C11.6953 11.1995 11.6293 11.3653 11.4973 11.4973C11.3653 11.6293 11.1995 11.6953 11 11.6953C10.8005 11.6953 10.6347 11.6293 10.5027 11.4973L7.5 8.49453Z" fill="white"/>
</svg>
