<svg width="15" height="16" viewBox="0 0 15 16" fill="none" xmlns="http://www.w3.org/2000/svg">
<path d="M7.5 8.99453L4.49734 11.9973C4.36526 12.1293 4.19948 12.1953 4 12.1953C3.80052 12.1953 3.63474 12.1293 3.50266 11.9973C3.37068 11.8653 3.30469 11.6995 3.30469 11.5C3.30469 11.3005 3.37068 11.1347 3.50266 11.0027L6.50547 8L3.50266 4.99734C3.37068 4.86526 3.30469 4.69948 3.30469 4.5C3.30469 4.30052 3.37068 4.13474 3.50266 4.00266C3.63474 3.87068 3.80052 3.80469 4 3.80469C4.19948 3.80469 4.36526 3.87068 4.49734 4.00266L7.5 7.00547L10.5027 4.00266C10.6347 3.87068 10.8005 3.80469 11 3.80469C11.1995 3.80469 11.3653 3.87068 11.4973 4.00266C11.6293 4.13474 11.6953 4.30052 11.6953 4.5C11.6953 4.69948 11.6293 4.86526 11.4973 4.99734L8.49453 8L11.4973 11.0027C11.6293 11.1347 11.6953 11.3005 11.6953 11.5C11.6953 11.6995 11.6293 11.8653 11.4973 11.9973C11.3653 12.1293 11.1995 12.1953 11 12.1953C10.8005 12.1953 10.6347 12.1293 10.5027 11.9973L7.5 8.99453Z" fill="#767676"/>
</svg>
