<svg width="30" height="30" viewBox="0 0 30 30" fill="none" xmlns="http://www.w3.org/2000/svg">
<path d="M15 26.25L13.1875 24.625C11.0833 22.7292 9.34375 21.0937 7.96875 19.7187C6.59375 18.3437 5.5 17.1094 4.6875 16.0156C3.875 14.9219 3.30729 13.9167 2.98437 13C2.66146 12.0833 2.5 11.1458 2.5 10.1875C2.5 8.22917 3.15625 6.59375 4.46875 5.28125C5.78125 3.96875 7.41667 3.3125 9.375 3.3125C10.4583 3.3125 11.4896 3.54167 12.4687 4C13.4479 4.45833 14.2917 5.10417 15 5.9375C15.7083 5.10417 16.5521 4.45833 17.5312 4C18.5104 3.54167 19.5417 3.3125 20.625 3.3125C22.5833 3.3125 24.2187 3.96875 25.5312 5.28125C26.8437 6.59375 27.5 8.22917 27.5 10.1875C27.5 11.1458 27.3385 12.0833 27.0156 13C26.6927 13.9167 26.125 14.9219 25.3125 16.0156C24.5 17.1094 23.4062 18.3437 22.0312 19.7187C20.6562 21.0937 18.9167 22.7292 16.8125 24.625L15 26.25Z" fill="#333333" fill-opacity="0.2"/>
<path d="M20.625 3.8125C22.4588 3.8125 23.9646 4.42162 25.1777 5.63477C26.3909 6.84791 27 8.35366 27 10.1875C27 11.0884 26.8483 11.9699 26.5439 12.834C26.2429 13.6886 25.7047 14.6495 24.9111 15.7178C24.1179 16.7855 23.042 18.0009 21.6777 19.3652C20.3111 20.7319 18.5785 22.3608 16.4785 24.2529L15 25.5781L13.5215 24.2529C11.4215 22.3608 9.68891 20.7319 8.32227 19.3652C6.95798 18.0009 5.88209 16.7855 5.08887 15.7178C4.29528 14.6495 3.75713 13.6886 3.45605 12.834C3.15167 11.9699 3 11.0884 3 10.1875C3 8.35366 3.60912 6.84791 4.82227 5.63477C6.03541 4.42162 7.54116 3.8125 9.375 3.8125C10.3852 3.8125 11.3442 4.02591 12.2568 4.45312C13.1702 4.8807 13.9567 5.4824 14.6191 6.26172L15 6.70996L15.3809 6.26172C16.0433 5.4824 16.8298 4.8807 17.7432 4.45312C18.6558 4.02591 19.6148 3.8125 20.625 3.8125Z" stroke="white" stroke-opacity="0.7"/>
</svg>
