<svg width="67" height="16" viewBox="0 0 67 16" fill="none" xmlns="http://www.w3.org/2000/svg">
<path d="M6.51397 0.282031C6.13763 0.454384 5.9181 0.705078 5.80833 1.04978L5.66721 1.56684H3.25236C0.790464 1.56684 0.241634 1.67652 0.241634 2.16224C0.241634 2.6793 0.586613 2.82031 1.88812 2.82031H3.15827L2.35855 3.65074C1.48042 4.54384 1.13544 5.42127 1.11976 6.73741C1.10408 7.88121 1.27657 7.99089 3.04851 7.99089C3.87959 7.99089 4.66363 7.91255 4.78908 7.8342C4.96157 7.72452 5.03997 7.27014 5.1027 6.07934C5.19678 4.32448 5.40063 3.74475 6.09059 3.22769C6.70214 2.77331 8.42704 2.69497 9.16403 3.08668C10.1362 3.58807 10.3244 4.02678 10.4185 5.95399C10.4969 7.25447 10.5753 7.72452 10.7478 7.8342C10.8732 7.91255 11.6573 7.99089 12.4884 7.99089C14.2603 7.99089 14.4328 7.88121 14.4171 6.73741C14.4014 5.38993 14.0565 4.54384 13.1627 3.63507L12.3316 2.82031H13.6331C14.9503 2.82031 15.2952 2.69497 15.2952 2.16224C15.2952 1.67652 14.7464 1.56684 12.2688 1.56684H9.85399L9.71286 1.04978C9.52469 0.423047 8.75633 0 7.76844 0C7.37642 0 6.81191 0.125347 6.51397 0.282031Z" fill="#D9D9D9"/>
<path d="M25.9896 0.940104C25.331 1.22213 25.1742 1.94288 25.1742 4.93555V7.67752H24.7822C24.4215 7.67752 24.3901 7.63051 24.3901 6.84709C24.3745 5.56228 24.1079 3.80742 23.8413 3.29036C23.6061 2.82031 23.6061 2.82031 24.0452 2.82031C24.8135 2.82031 25.1742 2.06823 24.5626 1.72352C24.3745 1.62951 22.8064 1.56684 20.5483 1.56684C18.2903 1.56684 16.7222 1.62951 16.534 1.72352C16.3772 1.81753 16.2361 2.05256 16.2361 2.25625C16.2361 2.63229 16.5027 2.82031 17.0358 2.82031C17.3965 2.82031 17.3965 2.77331 17.0672 3.6194C16.832 4.2148 16.8006 4.98255 16.7849 9.35404C16.7849 13.2868 16.832 14.4463 16.9888 14.603C17.271 14.885 19.3879 14.885 19.7329 14.5873C19.9681 14.3993 19.9995 13.8039 19.9995 8.89965C19.9995 3.41571 20.0465 2.82031 20.564 2.82031C21.0188 2.82031 21.0972 3.65074 21.0972 8.99366C21.0972 13.4435 21.1285 14.4149 21.3167 14.5559C21.6303 14.8223 22.5398 14.932 23.3552 14.8223C23.9511 14.7283 24.0765 14.65 24.2176 14.2269C24.3117 13.9606 24.3901 12.6601 24.3901 11.3439V8.93099H25.1742V12.0177C25.1742 15.9191 25.1585 15.8878 26.7109 15.9504C28.6396 16.0288 28.4672 16.7495 28.4672 8.64896C28.4515 3.38438 28.4044 1.58251 28.2633 1.39449C27.8242 0.814756 26.805 0.626735 25.9896 0.940104Z" fill="#D9D9D9"/>
<path d="M29.9568 0.97144C29.2355 1.34748 29.2512 1.26914 29.2512 8.64896C29.2512 16.7495 29.0787 16.0288 31.0075 15.9504C32.0424 15.9034 32.1678 15.8721 32.3403 15.5117C32.4971 15.214 32.5442 13.5688 32.5285 8.69596C32.5285 1.81753 32.4814 1.34748 31.7601 0.987109C31.274 0.736414 30.3802 0.736414 29.9568 0.97144Z" fill="#D9D9D9"/>
<path d="M45.4025 1.04978C44.4773 1.5355 44.4459 1.77053 44.493 8.94666C44.5557 16.5615 44.3832 15.9818 46.5315 15.9818C48.6014 15.9818 48.5386 16.0915 48.5386 12.2997V9.24436H49.1502C49.8245 9.24436 50.1851 8.94666 50.0283 8.49228C49.9342 8.17891 49.5265 7.99089 48.8993 7.99089H48.5386V1.88021L48.0996 1.39449C47.7232 0.971442 47.5194 0.877431 46.7981 0.830426C46.1865 0.783421 45.7945 0.846094 45.4025 1.04978Z" fill="#D9D9D9"/>
<path d="M62.3378 1.04978C61.4126 1.5355 61.3812 1.77053 61.4283 8.94666C61.491 16.5615 61.3185 15.9818 63.4668 15.9818C65.5367 15.9818 65.4739 16.0915 65.4739 12.2997V9.24436H66.0855C66.7598 9.24436 67.1204 8.94666 66.9636 8.49228C66.8695 8.17891 66.4618 7.99089 65.8346 7.99089H65.4739V1.88021L65.0349 1.39449C64.6585 0.971442 64.4547 0.877431 63.7334 0.830426C63.1218 0.783421 62.7298 0.846094 62.3378 1.04978Z" fill="#D9D9D9"/>
<path d="M33.8927 1.80186C33.7516 1.94288 33.6418 2.14657 33.6418 2.25625C33.6418 2.74197 34.0339 2.82031 36.5114 2.82031H38.989L38.942 7.08212C38.8949 11.3126 38.8949 11.3753 38.5029 12.049C37.9227 13.0675 37.3582 13.3495 35.5863 13.4435C34.3631 13.5062 34.0652 13.5688 33.9554 13.8039C33.5007 14.6186 34.3632 14.8536 37.0916 14.603C39.4281 14.3993 39.9769 14.2583 40.9491 13.5845C42.5799 12.4721 43.0347 10.7799 43.0503 5.7033C43.0503 2.66363 43.019 2.35026 42.7524 2.02122C42.4545 1.64518 42.4545 1.64518 38.299 1.59818C34.6454 1.55117 34.1123 1.58251 33.8927 1.80186Z" fill="#D9D9D9"/>
<path d="M50.3576 1.81754C50.0597 2.09957 50.0597 2.1309 50.2635 2.52261C50.389 2.74197 50.5928 2.82031 51.126 2.82031H51.8159L51.5023 3.35304C51.0319 4.15213 50.8594 6.14202 50.9221 10.4822C50.9535 13.4278 51.0162 14.4463 51.173 14.603C51.4709 14.9007 54.3562 14.885 54.7012 14.5873C54.9364 14.3993 54.9678 13.8039 54.9678 8.89966C54.9678 5.42127 55.0305 3.3217 55.1246 3.11801C55.3755 2.66363 56.0341 2.7263 56.2222 3.22769C56.3163 3.46272 56.3791 5.89132 56.3791 8.99367C56.3791 13.8039 56.4104 14.3993 56.6456 14.5873C57.0063 14.9007 59.6877 14.885 60.0484 14.5873C60.2836 14.3836 60.3149 13.9135 60.2679 9.26003C60.2209 4.30881 60.2052 4.13646 59.8759 3.49405L59.5152 2.83598L60.2679 2.78898C60.9735 2.74197 61.0049 2.71063 61.0519 2.25625C61.099 1.84887 61.0363 1.73919 60.7383 1.66085C60.5345 1.61385 58.1823 1.56684 55.4852 1.56684C51.2514 1.56684 50.5615 1.59818 50.3576 1.81754Z" fill="#D9D9D9"/>
<path d="M0.0848262 9.38538C0.00642194 9.55773 -0.0249398 9.80842 0.0221028 9.93377C0.100507 10.1531 0.52389 10.1845 2.92306 10.1845H5.72993V11.4223L0.790464 11.5163L0.743422 11.8923C0.633656 12.6601 0.868868 12.6914 5.9965 12.6914H10.7478V13.8822C10.7478 15.0103 10.9046 15.6214 11.2809 15.8564C11.375 15.9191 12.065 15.9818 12.802 15.9818C14.6994 15.9818 14.7307 15.9348 14.7935 13.8822C14.8562 12.2997 14.8405 12.2214 14.4485 11.8296C14.0721 11.4536 13.9937 11.4379 11.9239 11.4379H9.80695V10.1845H12.6138C15.013 10.1845 15.4364 10.1531 15.5148 9.93377C15.5618 9.80842 15.5305 9.55773 15.4521 9.38538C15.2952 9.10334 15.0287 9.08768 7.76844 9.08768C0.508209 9.08768 0.241635 9.10334 0.0848262 9.38538Z" fill="#D9D9D9"/>
</svg>
