<svg width="20" height="21" viewBox="0 0 20 21" fill="none" xmlns="http://www.w3.org/2000/svg">
<path d="M16.6351 18.1693C14.879 18.1693 13.1437 17.7867 11.4294 17.0214C9.715 16.2561 8.1534 15.1708 6.74465 13.7654C5.33576 12.3565 4.24875 10.794 3.48361 9.07807C2.71833 7.36209 2.33569 5.62605 2.33569 3.86994C2.33569 3.57341 2.43396 3.32605 2.63049 3.12786C2.82701 2.92966 3.07354 2.83057 3.37007 2.83057H6.74007C7.0109 2.83057 7.24264 2.91064 7.43528 3.07078C7.62792 3.23091 7.74812 3.43619 7.7959 3.68661L8.33257 6.49848C8.37354 6.77057 8.36743 7.00126 8.31423 7.19057C8.2609 7.37987 8.15875 7.54501 8.00778 7.68598L5.95694 9.68786C6.22153 10.1652 6.53479 10.6302 6.89674 11.0829C7.25882 11.5355 7.66236 11.9774 8.10736 12.4085C8.52139 12.8224 8.94792 13.2017 9.38694 13.5466C9.82583 13.8915 10.286 14.2033 10.7674 14.4822L12.7605 12.5041C12.922 12.3458 13.1201 12.2321 13.3547 12.1631C13.5892 12.0939 13.8287 12.0798 14.073 12.1208L16.8134 12.6893C17.0777 12.7647 17.2865 12.8928 17.4397 13.0735C17.5928 13.2542 17.6694 13.4697 17.6694 13.7201V17.1299C17.6694 17.4265 17.5703 17.6738 17.3722 17.872C17.174 18.0702 16.9283 18.1693 16.6351 18.1693Z" fill="#333333"/>
</svg>
