<svg width="195" height="131" viewBox="0 0 195 131" fill="none" xmlns="http://www.w3.org/2000/svg">
<path d="M137.185 0.203533C136.998 0.390358 136.936 1.92649 136.936 6.28579V12.1397L133.775 14.9421C126.602 21.2527 122.214 24.6156 115.997 28.5597C110.883 31.8188 102.565 36.1573 98.4069 37.7557C97.3881 38.1501 96.4732 38.6276 96.3693 38.8352C96.2445 39.0428 96.099 40.1637 96.0366 41.3262L95.9326 43.4436L96.6188 44.4815C98.698 47.5538 102.565 48.1558 106.558 46.0384C107.223 45.6855 108.117 45.0212 108.554 44.5853L109.323 43.7965L110.467 44.9174C113.877 48.2595 118.721 48.1558 122.277 44.6891L123.337 43.6512L124.481 44.9382C125.812 46.4743 126.643 46.8687 128.847 47.014C131.55 47.2009 133.858 46.412 136.104 44.5438L137.372 43.5058L138.557 44.6268C140.034 46.0176 140.865 46.5366 142.425 46.9725C144.754 47.6368 147.249 46.848 149.578 44.7098L150.846 43.5058L152.031 44.7721C155.441 48.4671 160.494 48.3011 163.363 44.3985L164.008 43.5474L165.318 44.7721C168 47.2631 171.846 47.7613 174.529 45.9553C176.026 44.9382 176.317 44.2531 176.4 41.5545C176.462 40.1222 176.4 39.0843 176.254 38.8144C176.13 38.5653 174.716 37.735 172.844 36.8216C162.635 31.8188 152.135 24.4495 142.342 15.4195C141.26 14.4231 139.951 13.2399 139.41 12.804C138.474 11.9944 138.453 11.9736 138.412 10.6451C138.391 9.66943 138.453 9.27501 138.641 9.21274C140.678 8.65226 149.578 5.68378 149.785 5.4762C149.931 5.33089 149.993 5.08179 149.931 4.91572C149.848 4.74965 147.436 3.83628 144.234 2.77759C139.743 1.30373 138.641 0.867805 138.474 0.494152C138.266 -0.00405121 137.559 -0.17012 137.185 0.203533Z" fill="#F7F7FB"/>
<path fill-rule="evenodd" clip-rule="evenodd" d="M35.7939 30.0959C30.2631 37.2991 25.6887 42.551 19.8252 48.4257L15.8954 52.3491L14.5438 55.6912C13.7953 57.5179 13.1507 59.0541 13.1092 59.0956L12.2151 60.694C12.2151 60.8808 9.17936 66.0289 8.07735 67.7311C7.01692 69.3503 6.76741 70.2844 7.28723 70.6996C7.84863 71.177 25.8966 71.4261 40.2227 71.1563C71.1621 70.6166 69.8314 70.6581 70.268 70.1184C70.476 69.8693 70.6423 69.5371 70.6423 69.3711C70.6423 69.205 70.0809 68.2501 69.4155 67.2537C68.2511 65.5307 65.6521 61.0469 65.6521 60.7563L64.8412 59.0333C64.654 58.805 63.1362 54.7155 62.4292 52.5359C62.1173 51.5602 61.7639 51.1658 59.2272 48.8616C52.927 43.1323 47.2506 37.05 41.5327 29.8676C39.7237 27.6049 39.0791 26.9406 38.7049 26.9406C38.3306 26.9406 37.7068 27.6256 35.7939 30.0959ZM54.8191 65.4477C52.0329 61.0261 49.1012 55.961 48.4982 54.5495C48.2902 54.0305 48.0407 53.5323 47.9576 53.4285C47.8744 53.3455 47.4378 54.0513 47.0011 54.9854C45.6912 57.767 41.5326 64.4305 38.4346 68.686C37.9771 69.3295 37.6652 69.9108 37.7276 69.9938C37.8108 70.0561 38.185 70.1184 38.6009 70.1184C39.2663 70.1184 39.4326 69.9938 40.0564 69.0182C41.6782 66.5479 47.3754 56.9574 47.4793 56.5008C47.6457 55.8157 47.7912 55.878 48.311 56.7914C49.6418 59.1786 53.8003 66.3403 54.7775 67.8764C55.7756 69.4748 55.9835 69.7032 56.5033 69.7032C56.836 69.7032 57.1479 69.6409 57.1895 69.5371C57.2519 69.4541 56.1706 67.6066 54.8191 65.4477Z" fill="#F7F7FB"/>
<path d="M93.2718 60.694C93.2718 60.7147 92.8144 61.8357 92.253 63.185C89.8202 69.0804 87.7618 73.2321 85.7657 76.3667C84.6845 78.0481 84.5805 78.484 85.0795 79.1483C85.391 79.5629 85.6819 79.5635 115.66 79.6255L115.79 79.6258C146.834 79.7088 186.257 79.3767 187.13 79.0445C188.066 78.6916 187.962 78.2765 186.34 75.5363C185.487 74.104 184.136 71.5715 183.325 69.9108C181.911 67.0046 179.561 61.3583 179.561 60.9016L178.854 59.2201L178.272 57.2481C177.94 56.1686 177.295 53.8644 176.838 52.1622C176.359 50.4393 175.86 48.571 175.694 47.9898L175.382 46.9311L174.384 47.4085C171.369 48.8616 168.271 48.5295 165.526 46.4536L164.175 45.4365L163.343 46.3291C161.846 47.9482 158.977 48.9447 156.606 48.654C155.13 48.4672 153.28 47.5538 152.011 46.4121L150.992 45.478L149.932 46.2668C148.768 47.1387 147.291 47.8444 145.877 48.2181C144.962 48.4464 144.942 48.4672 145.004 49.2768C145.358 54.4041 146.064 59.6145 147.125 64.9287C147.894 68.7068 149.578 75.2872 150.327 77.3631C150.784 78.6086 150.764 78.6709 149.89 78.5878L149.1 78.5256L148.352 75.827C146.168 68.0425 144.359 57.8293 143.902 50.7922L143.757 48.6125L142.655 48.3842C141.137 48.052 139.452 47.2217 138.33 46.246C137.81 45.7894 137.332 45.4157 137.269 45.4157C137.186 45.4157 136.874 45.644 136.562 45.9347C135.751 46.682 133.859 47.6369 132.466 48.0105C130.907 48.4049 128.017 48.4049 126.478 48.0105C125.812 47.8444 125.23 47.6991 125.189 47.6991C124.939 47.6991 124.503 49.2353 124.274 50.8129C123.401 56.9782 121.197 67.7726 118.993 76.6573L118.535 78.5256L117.745 78.5878C117.038 78.6501 116.955 78.6086 117.059 78.2765C118.618 73.2737 122.943 51.8508 123.359 46.9726L123.484 45.5195L122.631 46.2876C121.571 47.2425 120.074 48.0105 118.494 48.4257C115.499 49.2145 112.651 48.488 109.885 46.2253L109.345 45.7894L108.118 46.6197C106.538 47.6991 104.084 48.5295 102.483 48.5295C101.048 48.5295 99.073 48.052 98.0749 47.4708C97.7007 47.2425 97.3264 47.1179 97.264 47.1802C97.2016 47.2425 96.5571 49.4013 95.8501 52.0169C95.1224 54.6117 94.353 57.2896 94.1451 57.9746L93.7708 59.2201L93.2718 60.694Z" fill="#F7F7FB"/>
<path d="M71.3767 74.4363C70.9817 74.8722 71.0856 75.4534 71.6054 75.5988C71.8134 75.661 72.8946 75.7648 74.0382 75.8479L76.1174 75.9724L76.4293 75.4327C76.8868 74.5401 76.4501 74.3325 73.9342 74.1664C71.9173 74.0419 71.7302 74.0626 71.3767 74.4363Z" fill="#F7F7FB"/>
<path d="M44.2012 80.789C40.1466 81.6816 37.8179 85.086 39.1902 88.0752C39.7724 89.3415 41.415 90.8361 43.1408 91.6664C46.5508 93.3064 50.9588 92.6421 53.5994 90.1095L54.5559 89.1754L55.2836 89.7151C56.1777 90.4002 56.3233 90.3794 56.9263 89.6736L57.4045 89.1131L59.6917 89.2377C61.6878 89.3415 62.1868 89.4453 63.5383 90.0473C64.8482 90.6285 65.4096 90.7531 66.9691 90.8361C68.986 90.9191 69.485 90.7323 69.3187 89.902C69.2563 89.5906 68.986 89.5283 67.5097 89.466C66.075 89.4245 65.472 89.2792 64.2868 88.7602C63.0393 88.1998 62.4987 88.096 60.8353 88.0337C58.1946 87.9299 57.9243 87.8676 57.9243 87.2864C57.9243 87.0373 57.8619 86.6013 57.7788 86.3315C57.654 85.8333 57.3005 85.8125 55.9074 86.2277C55.5332 86.3315 55.4292 86.2692 55.4292 85.9786C55.4292 85.2313 54.4519 83.5083 53.6618 82.8025C51.4786 80.8927 47.5072 80.0416 44.2012 80.789Z" fill="#F7F7FB"/>
<path d="M2.11244 88.4902C1.01044 89.1545 0.698547 89.9848 0.698547 92.1852C0.698547 95.0914 0.511413 95.0084 9.41065 97.1258C10.9285 97.4787 11.9266 97.6032 12.4048 97.5202C14.1514 97.188 15.4197 94.8008 15.4405 91.8116C15.4613 90.483 15.3781 89.881 15.087 89.3828C14.4217 88.1373 14.089 88.075 8.1423 88.075C3.19366 88.075 2.73622 88.1166 2.11244 88.4902Z" fill="#F7F7FB"/>
<path d="M168.417 88.5731C166.795 89.009 165.381 89.4242 165.235 89.5072C164.84 89.7563 164.986 90.6489 165.485 90.9603C165.734 91.1264 166.525 91.4585 167.252 91.7076L168.541 92.1851L171.369 91.3962C175.361 90.296 175.653 89.8393 173.22 88.5523C172.409 88.1164 171.681 87.7842 171.556 87.7842C171.452 87.7842 170.039 88.1371 168.417 88.5731Z" fill="#F7F7FB"/>
<path d="M112.44 89.5323C110.173 90.2173 109.757 90.591 110.464 91.2968C110.963 91.7742 114.623 93.8916 114.976 93.8916C115.579 93.8916 119.759 92.4593 119.925 92.2102C120.112 91.8988 119.78 91.193 119.468 91.193C119.343 91.193 118.158 90.674 116.848 90.0513C115.517 89.4285 114.436 88.9096 114.415 88.9303C114.394 88.9303 113.521 89.2002 112.44 89.5323Z" fill="#F7F7FB"/>
<path d="M91.4999 97.1883C89.6285 99.3264 90.481 104.682 92.9138 105.928C93.7871 106.384 94.3277 106.322 99.0892 105.326C101.46 104.827 103.747 104.371 104.163 104.288C105.493 104.059 106.221 102.876 106.221 100.966C106.221 99.4717 105.722 97.8941 104.994 97.126L104.391 96.4825H98.2575H92.1237L91.4999 97.1883Z" fill="#F7F7FB"/>
<path d="M29.2567 102.627C27.2606 103.166 25.3061 104.35 23.6219 106.031C21.9377 107.692 21.0852 109.145 20.6901 111.034C20.4614 112.093 20.5238 114.065 20.8149 114.791C20.9396 115.123 20.8149 115.165 19.8584 115.186C19.2346 115.186 18.4029 115.31 18.0079 115.435C17.3633 115.663 17.2801 115.767 17.3425 116.286C17.3841 116.618 17.5504 117.158 17.696 117.469C17.9871 118.009 17.9871 118.03 17.1969 118.341C16.7603 118.528 15.6167 118.818 14.6602 119.026C12.4978 119.462 11.8532 119.773 9.96112 121.351C8.42247 122.659 7.29967 123.136 5.36595 123.385C4.18077 123.531 3.99364 123.676 4.18077 124.278C4.36791 124.88 5.28278 125.108 6.59272 124.88C8.11058 124.61 9.58685 123.842 10.8344 122.659C12.3731 121.206 12.7265 121.019 14.9721 120.562C16.0949 120.334 17.4257 119.96 17.9455 119.732L18.8811 119.317L19.5049 119.835C19.8376 120.126 20.295 120.354 20.5238 120.354C21.0644 120.354 21.8753 119.462 22.1664 118.569L22.3951 117.884L23.3723 118.569C26.7615 120.977 30.8785 121.413 34.6419 119.773C37.2202 118.652 39.7985 115.85 40.6926 113.151C41.358 111.158 41.1916 108.854 40.2975 107.007C39.1955 104.806 36.9915 103.063 34.6004 102.502C33.3112 102.212 30.5666 102.274 29.2567 102.627Z" fill="#F7F7FB"/>
<path d="M121.009 110.806C119.657 111.449 119.075 111.947 119.387 112.259C119.491 112.362 120.635 112.819 121.924 113.276L124.273 114.106L126.145 113.255C127.683 112.549 127.995 112.321 127.954 111.968C127.912 111.636 127.475 111.428 125.5 110.868C124.19 110.494 122.922 110.204 122.693 110.204C122.464 110.204 121.716 110.473 121.009 110.806Z" fill="#F7F7FB"/>
<path d="M137.952 115.185C133.648 115.808 129.926 118.776 129.406 122.015C129.302 122.7 129.198 122.845 128.928 122.721C128.304 122.451 126.454 122.16 126.121 122.285C125.934 122.368 125.747 122.783 125.664 123.426L125.539 124.443L123.376 124.651C121.526 124.859 121.027 124.983 119.883 125.606C118.137 126.582 116.66 126.997 115.059 126.997C113.916 126.997 113.749 127.059 113.625 127.433C113.375 128.201 113.978 128.554 115.558 128.533C117.222 128.512 118.657 128.076 120.299 127.059C121.422 126.395 121.734 126.312 123.709 126.146C125.352 126 125.913 126.021 125.976 126.208C126.017 126.353 126.287 126.685 126.558 126.955C127.161 127.557 127.992 127.474 129.032 126.685L129.697 126.187L130.238 126.997C130.529 127.433 131.278 128.201 131.901 128.657C135.852 131.626 142.09 131.024 145.895 127.287C147.641 125.585 148.328 124.091 148.348 122.119C148.348 118.797 145.978 116.161 142.173 115.268C140.738 114.936 139.844 114.915 137.952 115.185Z" fill="#F7F7FB"/>
<path d="M125.502 84.3361C123.752 88.1128 118.157 101.128 118.157 101.441C118.157 102.034 119.814 102.127 121.814 101.628C122.939 101.378 127.44 99.599 131.847 97.7262C143.661 92.701 142.067 93.138 144.348 94.2617C145.411 94.7611 146.411 95.198 146.536 95.198C146.661 95.198 146.943 95.3229 147.193 95.4789C147.536 95.6974 147.349 96.1032 146.224 97.4453C144.005 100.067 138.16 107.902 138.16 108.276C138.16 109.056 139.41 109.275 142.004 108.932C143.88 108.682 160.601 104.655 164.257 103.594C164.445 103.532 165.226 103.781 166.008 104.156C166.789 104.499 167.945 104.968 168.571 105.155C170.602 105.841 170.915 105.405 164.257 111.272C160.569 114.55 159.944 115.33 160.694 115.829C161.601 116.485 172.227 115.517 182.166 113.926C185.917 113.301 186.042 113.301 187.167 113.863C187.792 114.206 189.323 114.862 190.574 115.33C192.418 116.048 192.918 116.142 193.324 115.798C193.574 115.58 193.699 115.299 193.605 115.143C193.512 114.987 193.637 114.862 193.887 114.862C194.48 114.862 194.418 114.019 193.824 113.489C193.543 113.27 189.448 111.304 184.729 109.15C180.01 106.996 172.009 103.344 166.977 101.004C161.913 98.6626 157.725 96.7586 157.663 96.7586C157.507 96.7586 140.16 88.5498 132.878 85.0228C129.565 83.3997 126.752 82.0888 126.69 82.0888C126.627 82.0888 126.096 83.1188 125.502 84.3361Z" fill="#F7F7FB"/>
<path d="M54.5199 106.599C54.104 107.035 54.104 107.201 54.5199 107.637C54.7902 107.907 55.3308 107.969 57.5348 107.928C60.3834 107.907 60.7369 107.782 60.5913 106.869C60.529 106.392 60.4666 106.392 57.6804 106.329C55.31 106.288 54.7902 106.329 54.5199 106.599Z" fill="#F7F7FB"/>
<path d="M78.7592 108.686C78.4681 108.749 77.678 109.039 76.9919 109.351C74.8918 110.306 73.8106 111.489 74.3928 112.174C74.7879 112.651 75.5988 112.548 76.5968 111.842C78.9464 110.243 80.0692 110.202 82.9386 111.696L85.0386 112.797H87.0347C89.3427 112.797 90.6526 112.34 90.7774 111.489C90.8605 110.949 90.9437 110.97 87.9912 110.949L85.704 110.928L83.5207 109.828C81.3375 108.749 80.0068 108.417 78.7592 108.686Z" fill="#F7F7FB"/>
<path d="M69.6782 122.202C64.5216 124.153 64.4385 124.485 68.7425 126.146L71.6535 127.267L73.0882 126.623C75.4794 125.585 77.4754 124.319 77.4754 123.883C77.4754 123.676 77.3507 123.427 77.2259 123.323C76.9972 123.198 71.8614 121.371 71.7783 121.392C71.7575 121.413 70.8218 121.766 69.6782 122.202Z" fill="#F7F7FB"/>
</svg>
