<svg width="20" height="21" viewBox="0 0 20 21" fill="none" xmlns="http://www.w3.org/2000/svg">
<g clip-path="url(#clip0_226_620)">
<path d="M8.30731 20C5.87986 20 3.82786 19.6207 2.15131 18.862C0.474752 18.1033 -0.363525 17.1781 -0.363525 16.0865V6.7757C-0.363525 5.69953 0.483545 4.77823 2.17769 4.0118C3.87183 3.24537 5.91503 2.86215 8.30731 2.86215C10.6958 2.86215 12.7381 3.24537 14.4341 4.0118C16.1301 4.77823 16.9781 5.69953 16.9781 6.7757V16.0865C16.9781 17.1781 16.1389 18.1033 14.4605 18.862C12.782 19.6207 10.731 20 8.30731 20ZM8.30731 8.65554C9.70106 8.65554 11.1008 8.45862 12.5065 8.06477C13.9121 7.67093 14.707 7.24899 14.891 6.79897C14.707 6.34895 13.9142 5.92407 12.5126 5.52433C11.111 5.12459 9.70922 4.92472 8.30731 4.92472C6.88969 4.92472 5.49578 5.12164 4.12558 5.51548C2.75538 5.90933 1.95471 6.33716 1.72357 6.79897C1.95094 7.26451 2.74878 7.69032 4.1171 8.07641C5.48541 8.4625 6.88215 8.65554 8.30731 8.65554ZM8.30731 13.2765C8.9555 13.2765 9.58392 13.2445 10.1925 13.1806C10.8012 13.1166 11.3833 13.0255 11.9388 12.9073C12.4945 12.7891 13.0215 12.6428 13.5197 12.4685C14.0181 12.2941 14.4752 12.0945 14.891 11.8698V9.32149C14.4752 9.53874 14.02 9.73179 13.5254 9.90062C13.0308 10.0695 12.5066 10.2111 11.953 10.3257C11.3993 10.4402 10.8181 10.5275 10.2095 10.5878C9.60088 10.648 8.96681 10.6781 8.30731 10.6781C7.65534 10.6781 7.01813 10.648 6.39569 10.5878C5.77324 10.5275 5.18424 10.4392 4.62869 10.3229C4.07298 10.2065 3.54993 10.0639 3.05954 9.89503C2.56899 9.7262 2.12367 9.53502 1.72357 9.32149V11.8698C2.1199 12.0908 2.56334 12.2895 3.05388 12.4657C3.54443 12.6419 4.06936 12.7891 4.62869 12.9073C5.18785 13.0255 5.77874 13.1166 6.40134 13.1806C7.02378 13.2445 7.65911 13.2765 8.30731 13.2765ZM8.30731 17.9374C9.01831 17.9374 9.74298 17.8841 10.4813 17.7773C11.2198 17.6705 11.9012 17.5288 12.5255 17.3523C13.1499 17.1757 13.6768 16.9749 14.1065 16.7498C14.5361 16.5248 14.7976 16.2959 14.891 16.0632V13.9489C14.479 14.1699 14.0257 14.3676 13.5311 14.542C13.0364 14.7165 12.5104 14.8619 11.953 14.9782C11.3955 15.0946 10.8125 15.1839 10.2039 15.2459C9.59522 15.308 8.96304 15.339 8.30731 15.339C7.65534 15.339 7.01813 15.308 6.39569 15.2459C5.77324 15.1839 5.1833 15.0928 4.62586 14.9727C4.06842 14.8525 3.54443 14.7062 3.05388 14.5337C2.56334 14.3611 2.1199 14.1643 1.72357 13.9434V16.0865C1.81339 16.3155 2.07004 16.5386 2.49354 16.7559C2.91719 16.9732 3.44119 17.1701 4.06552 17.3467C4.68985 17.5233 5.37518 17.6659 6.12152 17.7745C6.8677 17.8831 7.5963 17.9374 8.30731 17.9374Z" fill="#333333"/>
<path d="M4.34722 8.91414C4.34722 4.54328 7.93264 1 12.3555 1C16.7783 1 20.3637 4.54328 20.3637 8.91414C20.3637 13.285 16.7783 16.8283 12.3555 16.8283C7.93264 16.8283 4.34722 13.285 4.34722 8.91414Z" fill="#333333"/>
<path d="M6.23152 8.91414C6.23152 5.57172 8.97331 2.86215 12.3555 2.86215C15.7377 2.86215 18.4795 5.57172 18.4795 8.91414C18.4795 12.2566 15.7377 14.9661 12.3555 14.9661C8.97331 14.9661 6.23152 12.2566 6.23152 8.91414Z" fill="white"/>
<path d="M7.64566 5.65538H9.00184L10.3087 11.1149H10.3827L11.6895 5.65538H13.0457L14.3403 11.0875H14.4142L15.7088 5.65538H17.0649L15.1046 13.104H13.7608L12.4046 7.74044H12.306L10.9621 13.104H9.60595L7.64566 5.65538Z" fill="#333333"/>
<path d="M7.17367 6.60475H17.5373V8.07232H7.17367V6.60475Z" fill="#333333"/>
<path d="M7.17367 8.91093H17.5373V10.3785H7.17367V8.91093Z" fill="#333333"/>
</g>
<defs>
<clipPath id="clip0_226_620">
<rect width="20" height="20" fill="white" transform="translate(0 0.5)"/>
</clipPath>
</defs>
</svg>
