<svg width="32" height="32" viewBox="0 0 32 32" fill="none" xmlns="http://www.w3.org/2000/svg">
<path d="M15.4375 1.29375C14.3063 1.33125 12.925 1.5625 11.7688 1.9125C9.48128 2.60625 7.52503 3.75625 5.78753 5.4375C3.33128 7.81875 1.85629 10.75 1.40004 14.1563C1.29379 14.9813 1.27504 16.8563 1.37504 17.6875C1.96254 22.6 5.00628 26.9438 9.41253 29.1438C10.2375 29.5563 11.1813 29.9375 11.375 29.9375C11.4688 29.9375 11.625 29.8313 11.7875 29.6625C12.1625 29.2688 12.1875 29.0813 12.1875 26.8438V24.9375H10.7563C9.16253 24.9375 8.83753 24.8813 8.30003 24.5125C7.91878 24.25 7.73128 23.9563 7.31253 22.9375C6.85628 21.8313 6.62503 21.4438 6.17503 21.0313C5.97503 20.8563 5.81253 20.675 5.81253 20.6375C5.81253 20.5375 6.08753 20.475 6.33128 20.525C6.68753 20.5938 7.33753 21.0875 7.87503 21.7C9.01878 22.9875 9.38753 23.1313 11.2375 23.0063C12.5125 22.925 12.9063 22.8313 13.1438 22.55C13.5313 22.1063 14.0438 21.6125 14.2438 21.4813C14.3625 21.4125 14.6313 21.2875 14.8375 21.2125L15.2188 21.0688H14.875C13.675 21.0563 12.0188 20.675 10.8938 20.1563C9.95628 19.725 9.00628 18.9438 8.55003 18.2438L8.34378 17.9188L7.18753 17.9563C5.98753 18 4.53753 18.1188 3.42503 18.275C3.07503 18.325 2.78128 18.3625 2.77504 18.3563C2.76878 18.35 2.75003 18.2125 2.73128 18.05C2.70003 17.8063 2.70628 17.75 2.80003 17.725C3.23753 17.6 6.36878 17.3125 7.36253 17.3125C7.71253 17.3125 8.00003 17.2938 8.00003 17.275C8.00003 17.25 7.96878 17.1313 7.93128 17C7.86253 16.7688 7.85628 16.7688 7.44378 16.725C6.84378 16.6688 4.41253 16.6813 3.46878 16.75C2.56878 16.8063 2.56254 16.8063 2.56254 16.4313C2.56254 16.2688 2.59379 16.1875 2.66878 16.1563C2.73128 16.1313 3.88128 16.0938 5.22503 16.075L7.66878 16.0438L7.63753 15.3813C7.58753 14.3063 7.87503 13.2063 8.44378 12.3188L8.69378 11.9188L8.56878 11.3813C8.37503 10.5375 8.29378 9.775 8.33128 9.15625C8.36878 8.50625 8.44378 8.225 8.64378 7.93125C8.78753 7.71875 8.79378 7.71875 9.25628 7.73125C9.51253 7.7375 9.90628 7.7875 10.1313 7.84375C10.65 7.98125 11.5063 8.38125 11.9 8.675C12.075 8.80625 12.2563 8.9375 12.2938 8.9625C12.3375 8.9875 12.6188 8.925 12.9188 8.81875C14.825 8.175 17.05 8.1625 18.9375 8.7875L19.5875 9.00625L19.75 8.88125C20.3438 8.4 21.3313 7.9375 22.075 7.7875C22.725 7.65625 23.0813 7.65625 23.2063 7.8C23.6938 8.3375 23.7688 9.7125 23.4063 11.2313L23.2438 11.925L23.4938 12.3125C23.8063 12.7938 24.0938 13.525 24.1938 14.0938C24.2375 14.3438 24.2563 14.8188 24.2375 15.25L24.2063 15.975H26.15C27.2188 15.9688 28.3938 15.9938 28.7688 16.025L29.4375 16.075V16.3688V16.6625L26.7563 16.6375L24.0813 16.6125L23.975 16.9125C23.9188 17.075 23.875 17.2313 23.875 17.25C23.875 17.275 24.4313 17.3125 25.1125 17.3313C26.1625 17.3688 27.675 17.4938 28.9875 17.6625L29.3188 17.7063L29.275 17.9938C29.25 18.15 29.225 18.2938 29.2125 18.3063C29.2 18.3188 28.9125 18.3 28.5813 18.2563C27.225 18.0875 26.0938 18 24.8375 17.9563L23.5125 17.9188L23.4188 18.1C23.1625 18.5875 22.2938 19.4188 21.6188 19.8188C20.4625 20.5063 18.4688 21.05 17.0438 21.0688H16.7188L17.075 21.1813C18.175 21.5313 19.0875 22.5813 19.6313 24.125C19.7688 24.5125 19.7813 24.6313 19.8125 26.8125C19.8375 28.8688 19.8563 29.1188 19.9625 29.325C20.1063 29.6188 20.4563 29.9375 20.6375 29.9375C20.8313 29.9375 21.8125 29.5313 22.7 29.0813C24.1563 28.3438 25.3563 27.45 26.5625 26.2063C27.7438 24.9938 28.5 23.9 29.2563 22.3438C29.9563 20.9 30.3875 19.45 30.6 17.8438C30.7063 17.025 30.7188 15.1313 30.625 14.3063C30.2438 11.1063 28.8188 8.1125 26.5625 5.7875C23.6063 2.7375 19.7125 1.1625 15.4375 1.29375Z" fill="#D9D9D9"/>
</svg>
