<svg width="15" height="16" viewBox="0 0 15 16" fill="none" xmlns="http://www.w3.org/2000/svg">
<path d="M9.26799 10.6517L7.50022 12.4194C6.88887 13.0308 6.1523 13.3365 5.29051 13.3365C4.42872 13.3365 3.69216 13.0308 3.0808 12.4194C2.46945 11.8081 2.16377 11.0715 2.16377 10.2097C2.16377 9.34793 2.46945 8.61136 3.0808 8.00001L4.84857 6.23224L5.73245 7.11612L3.96469 8.88389C3.5964 9.25218 3.41226 9.69412 3.41226 10.2097C3.41226 10.7253 3.5964 11.1673 3.96469 11.5355C4.33297 11.9038 4.77491 12.088 5.29051 12.088C5.80611 12.088 6.24805 11.9038 6.61634 11.5355L8.3841 9.76778L9.26799 10.6517ZM6.17439 10.2097L5.29051 9.32583L8.82604 5.7903L9.70993 6.67418L6.17439 10.2097ZM10.1519 9.76778L9.26799 8.88389L11.0358 7.11612C11.404 6.74784 11.5882 6.3059 11.5882 5.7903C11.5882 5.2747 11.404 4.83276 11.0358 4.46447C10.6675 4.09619 10.2255 3.91205 9.70993 3.91205C9.19433 3.91205 8.75239 4.09619 8.3841 4.46447L6.61634 6.23224L5.73245 5.34836L7.50022 3.58059C8.11157 2.96924 8.84814 2.66356 9.70993 2.66356C10.5717 2.66356 11.3083 2.96924 11.9196 3.58059C12.531 4.19194 12.8367 4.92851 12.8367 5.7903C12.8367 6.65209 12.531 7.38866 11.9196 8.00001L10.1519 9.76778Z" fill="#333333"/>
</svg>
