<svg width="106" height="28" viewBox="0 0 106 28" fill="none" xmlns="http://www.w3.org/2000/svg">
<path d="M53 0C59.9061 2.00665 68.1572 3.91989 77.7534 5.73988C87.3496 7.55987 96.7652 8.91328 106 9.79995V12.5999C106 13.6499 104.976 14.5833 102.929 15.3999C100.881 16.2166 98.2908 16.7999 95.159 17.1499C95.3196 18.9932 95.7813 20.8307 96.5442 22.6624C97.3071 24.494 98.8532 26.2732 101.182 27.9998H49.0565H48.9988C49.0177 28.0001 49.0369 28 49.0565 27.9998C49.3343 27.997 49.6777 27.9551 50.102 27.9379C51.4018 27.8789 51.5593 27.8393 51.776 27.3873C51.9729 27.0137 52.0318 24.9501 52.0121 18.8393C52.0121 10.2131 51.9531 9.62345 51.0473 9.1715C50.4368 8.85709 49.3139 8.85669 48.7822 9.15145C47.8763 9.62301 47.896 9.5253 47.896 18.7805C47.896 27.0348 47.7531 27.9861 48.9988 27.9998H45.8088C47.0544 27.9861 46.9112 27.0347 46.9112 18.7805C46.8915 12.1797 46.8327 9.91926 46.6556 9.68237C46.1042 8.95533 44.8239 8.71932 43.7998 9.11225C42.9727 9.46597 42.7756 10.3701 42.7756 14.1234V17.5623H42.2834C41.8304 17.5623 41.7908 17.5031 41.7908 16.5205C41.7711 14.9092 41.4364 12.7084 41.1016 12.0599C40.8062 11.4704 40.8062 11.4706 41.3577 11.4706C42.3226 11.4706 42.7754 10.5271 42.0074 10.0948C41.7705 9.97693 39.801 9.89838 36.9655 9.89838C34.1304 9.89839 32.1613 9.97695 31.9241 10.0948C31.7272 10.2127 31.5496 10.5075 31.5496 10.7629C31.5496 11.2345 31.8847 11.4706 32.5543 11.4706C33.0071 11.4706 33.0069 11.4118 32.5933 12.4728C32.298 13.2195 32.2589 14.1827 32.2392 19.6646C32.2392 24.5969 32.2983 26.0511 32.4953 26.2476C32.8499 26.6013 35.5084 26.6013 35.9417 26.228C36.237 25.9921 36.2763 25.2447 36.2763 19.0949C36.2763 12.2172 36.3356 11.4706 36.9855 11.4706C37.5566 11.4708 37.6552 12.5125 37.6552 19.213C37.6552 24.7936 37.6944 26.0119 37.9308 26.1888C38.3247 26.5228 39.4669 26.6604 40.491 26.5228C41.2393 26.4049 41.397 26.3065 41.5742 25.7759C41.6924 25.4414 41.7908 23.8105 41.7908 22.1602V19.1341H42.7756V23.0055C42.7756 27.8983 42.7559 27.8593 44.7056 27.9379C45.1299 27.9551 45.4732 27.997 45.751 27.9998C45.7706 28 45.7899 28.0001 45.8088 27.9998H45.751H4.81802C7.14681 26.2732 8.69291 24.494 9.45579 22.6624C10.2187 20.8307 10.6804 18.9932 10.841 17.1499C7.70917 16.7999 5.11914 16.2166 3.07142 15.3999C1.02379 14.5833 0 13.6499 0 12.5999V9.79995C9.23485 8.91328 18.6504 7.55987 28.2466 5.73988C37.8428 3.91989 46.0939 2.00665 53 0ZM69.9343 8.97462C69.1663 8.91567 68.6738 8.99442 68.1814 9.24988C67.0195 9.85904 66.98 10.1539 67.0391 19.1537C67.1179 28.7038 66.9013 27.9771 69.5993 27.9771C72.1989 27.9771 72.1204 28.1145 72.1204 23.3592V19.527H72.8886C73.7353 19.5269 74.1882 19.1538 73.9914 18.5841C73.8733 18.1911 73.3609 17.9552 72.5731 17.9552H72.1204V10.2912L71.5688 9.68237C71.0961 9.15182 70.8402 9.03358 69.9343 8.97462ZM91.2041 8.97462C90.4362 8.91571 89.9439 8.99448 89.4516 9.24988C88.2896 9.85905 88.2502 10.1538 88.3093 19.1537C88.3881 28.704 88.1713 27.9771 90.8695 27.9771C93.4691 27.9771 93.3902 28.1145 93.3902 23.3592V19.527H94.1584C95.0052 19.527 95.4581 19.1539 95.2612 18.5841C95.143 18.1911 94.6311 17.9552 93.8433 17.9552H93.3902V10.2912L92.839 9.68237C92.3663 9.1518 92.11 9.03358 91.2041 8.97462ZM20.9147 19.3306C11.7962 19.3306 11.4615 19.3505 11.2646 19.7043C11.1662 19.9204 11.1265 20.2348 11.1856 20.3919C11.2841 20.667 11.8162 20.7064 14.8291 20.7064H18.3545V22.2586L12.1508 22.3766L12.0918 22.8483C11.954 23.8111 12.2494 23.8505 18.6891 23.8505H24.6567V25.3439C24.6567 26.7587 24.8537 27.5251 25.3264 27.8198C25.4449 27.8984 26.3114 27.9771 27.2369 27.9771C29.6197 27.9771 29.6593 27.918 29.738 25.3439C29.8168 23.3592 29.7968 23.2607 29.3045 22.7695C28.8319 22.2979 28.7331 22.2782 26.1336 22.2782H23.4749V20.7064H27.0003C30.0132 20.7064 30.5452 20.667 30.6438 20.3919C30.7029 20.2348 30.6632 19.9204 30.5648 19.7043C30.3679 19.3505 30.0332 19.3306 20.9147 19.3306ZM80.8448 9.89838C75.5277 9.89838 74.6611 9.93776 74.405 10.2128C74.0309 10.5665 74.0306 10.6058 74.2865 11.0969C74.4441 11.372 74.7003 11.4706 75.3698 11.4706H76.2365L75.8425 12.1387C75.2517 13.1411 75.035 15.6368 75.1138 21.0796C75.1531 24.7729 75.232 26.0505 75.4288 26.2476C75.803 26.6209 79.4264 26.6013 79.86 26.228C80.1555 25.9922 80.1951 25.2455 80.1951 19.0949C80.1951 14.7327 80.274 12.0995 80.3921 11.8439C80.7073 11.274 81.5342 11.3527 81.7705 11.9815C81.8887 12.277 81.9676 15.3227 81.9676 19.213C81.9676 25.2445 82.0069 25.992 82.3022 26.228C82.7552 26.621 86.1233 26.6013 86.5763 26.228C86.8715 25.9724 86.911 25.382 86.8519 19.547C86.7928 13.3376 86.7728 13.1212 86.3593 12.3156L85.9066 11.4902L86.8519 11.431C87.738 11.372 87.7776 11.3327 87.8366 10.7629C87.8957 10.2521 87.8167 10.1147 87.4426 10.0164C87.1863 9.95747 84.2321 9.89838 80.8448 9.89838ZM59.26 9.93758C54.6712 9.87862 54.0012 9.91813 53.7255 10.1932C53.5484 10.37 53.4105 10.6254 53.4104 10.7629C53.4104 11.3721 53.9031 11.4706 57.0149 11.4706H60.1262L60.0672 16.8154C60.0671 16.8278 60.0669 16.8401 60.0668 16.8524C60.0081 22.1214 60.0072 22.2017 59.516 23.0447C58.7873 24.322 58.0781 24.6754 55.8526 24.7934C54.3167 24.8719 53.9424 24.9508 53.8045 25.2454C53.2334 26.2673 54.3167 26.562 57.7436 26.2476C60.6779 25.9921 61.3673 25.8156 62.5884 24.9706C64.6366 23.5754 65.2074 21.4527 65.2271 15.0859C65.2271 11.2739 65.1878 10.8807 64.853 10.468C64.4789 9.99658 64.4783 9.99652 59.26 9.93758ZM20.9147 7.93329C20.4224 7.93329 19.7135 8.09046 19.3393 8.28693C18.8666 8.50308 18.5909 8.81759 18.453 9.24988L18.2755 9.89838H15.2427C12.1511 9.89838 11.4613 10.0359 11.4612 10.6449C11.4612 11.2933 11.8946 11.4706 13.5292 11.4706H15.1246L14.1203 12.512C13.0175 13.632 12.5842 14.7324 12.5644 16.3829C12.5447 17.8174 12.7612 17.9552 14.9866 17.9552C16.0302 17.9552 17.0148 17.857 17.1727 17.7588C17.3893 17.6212 17.488 17.051 17.5668 15.5576C17.685 13.3568 17.9411 12.63 18.8076 11.9815C19.5757 11.4117 21.742 11.3134 22.6677 11.8047C23.8885 12.4335 24.1249 12.9836 24.2431 15.4004C24.3416 17.0314 24.4401 17.6212 24.6567 17.7588C24.8145 17.857 25.7991 17.9552 26.8428 17.9552C29.0682 17.9552 29.2847 17.8174 29.265 16.3829C29.2452 14.6931 28.8121 13.6321 27.6895 12.4924L26.6457 11.4706H28.2807C29.9348 11.4706 30.3682 11.313 30.3682 10.6449C30.368 10.0359 29.6784 9.89839 26.5672 9.89838H23.5339L23.3568 9.24988C23.1205 8.46386 22.1554 7.93329 20.9147 7.93329Z" fill="#FF4238"/>
<path d="M20.9147 19.3306C11.7962 19.3306 11.4615 19.3505 11.2646 19.7043C11.1662 19.9204 11.1265 20.2348 11.1856 20.3919C11.2841 20.667 11.8162 20.7064 14.8291 20.7064H18.3545V22.2586L12.1508 22.3766L12.0918 22.8483C11.954 23.8111 12.2494 23.8505 18.6891 23.8505H24.6567V25.3439C24.6567 26.7587 24.8537 27.5251 25.3264 27.8198C25.4449 27.8984 26.3114 27.9771 27.2369 27.9771C29.6197 27.9771 29.6593 27.918 29.738 25.3439C29.8168 23.3592 29.7968 23.2607 29.3045 22.7695C28.8319 22.2979 28.7331 22.2782 26.1336 22.2782H23.4749V20.7064H27.0003C30.0132 20.7064 30.5452 20.667 30.6438 20.3919C30.7029 20.2348 30.6632 19.9204 30.5648 19.7043C30.3679 19.3505 30.0332 19.3306 20.9147 19.3306Z" fill="white"/>
<path d="M20.9147 7.93329C20.4224 7.93329 19.7135 8.09046 19.3393 8.28693C18.8666 8.50308 18.5909 8.81759 18.453 9.24988L18.2755 9.89838H15.2427C12.1511 9.89838 11.4613 10.0359 11.4612 10.6449C11.4612 11.2933 11.8946 11.4706 13.5292 11.4706H15.1246L14.1203 12.512C13.0175 13.632 12.5842 14.7324 12.5644 16.3829C12.5447 17.8174 12.7612 17.9552 14.9866 17.9552C16.0302 17.9552 17.0148 17.857 17.1727 17.7588C17.3893 17.6212 17.488 17.051 17.5668 15.5576C17.685 13.3568 17.9411 12.63 18.8076 11.9815C19.5757 11.4117 21.742 11.3134 22.6677 11.8047C23.8885 12.4335 24.1249 12.9836 24.2431 15.4004C24.3416 17.0314 24.4401 17.6212 24.6567 17.7588C24.8145 17.857 25.7991 17.9552 26.8428 17.9552C29.0682 17.9552 29.2847 17.8174 29.265 16.3829C29.2452 14.6931 28.8121 13.6321 27.6895 12.4924L26.6457 11.4706H28.2807C29.9348 11.4706 30.3682 11.313 30.3682 10.6449C30.368 10.0359 29.6784 9.89839 26.5672 9.89838H23.5339L23.3568 9.24988C23.1205 8.46386 22.1554 7.93329 20.9147 7.93329Z" fill="white"/>
<path d="M45.8088 27.9998C47.0544 27.9861 46.9112 27.0347 46.9112 18.7805C46.8915 12.1797 46.8327 9.91926 46.6556 9.68237C46.1042 8.95533 44.8239 8.71932 43.7998 9.11225C42.9727 9.46597 42.7756 10.3701 42.7756 14.1234V17.5623H42.2834C41.8304 17.5623 41.7908 17.5031 41.7908 16.5205C41.7711 14.9092 41.4364 12.7084 41.1016 12.0599C40.8062 11.4704 40.8062 11.4706 41.3577 11.4706C42.3226 11.4706 42.7754 10.5271 42.0074 10.0948C41.7705 9.97693 39.801 9.89838 36.9655 9.89838C34.1304 9.89839 32.1613 9.97695 31.9241 10.0948C31.7272 10.2127 31.5496 10.5075 31.5496 10.7629C31.5496 11.2345 31.8847 11.4706 32.5543 11.4706C33.0071 11.4706 33.0069 11.4118 32.5933 12.4728C32.298 13.2195 32.2589 14.1827 32.2392 19.6646C32.2392 24.5969 32.2983 26.0511 32.4953 26.2476C32.8499 26.6013 35.5084 26.6013 35.9417 26.228C36.237 25.9921 36.2763 25.2447 36.2763 19.0949C36.2763 12.2172 36.3356 11.4706 36.9855 11.4706C37.5566 11.4708 37.6552 12.5125 37.6552 19.213C37.6552 24.7936 37.6944 26.0119 37.9308 26.1888C38.3247 26.5228 39.4669 26.6604 40.491 26.5228C41.2393 26.4049 41.397 26.3065 41.5742 25.7759C41.6924 25.4414 41.7908 23.8105 41.7908 22.1602V19.1341H42.7756V23.0055C42.7756 27.8983 42.7559 27.8593 44.7056 27.9379C45.1299 27.9551 45.4732 27.997 45.751 27.9998H45.8088Z" fill="white"/>
<path d="M48.9988 27.9998H49.0565C49.3343 27.997 49.6777 27.9551 50.102 27.9379C51.4018 27.8789 51.5593 27.8393 51.776 27.3873C51.9729 27.0137 52.0318 24.9501 52.0121 18.8393C52.0121 10.2131 51.9531 9.62345 51.0473 9.1715C50.4368 8.85709 49.3139 8.85669 48.7822 9.15145C47.8763 9.62301 47.896 9.5253 47.896 18.7805C47.896 27.0348 47.7531 27.9861 48.9988 27.9998Z" fill="white"/>
<path d="M59.26 9.93758C54.6712 9.87862 54.0012 9.91813 53.7255 10.1932C53.5484 10.37 53.4105 10.6254 53.4104 10.7629C53.4104 11.3721 53.9031 11.4706 57.0149 11.4706H60.1262L60.0672 16.8154L60.0668 16.8524C60.0081 22.1214 60.0072 22.2017 59.516 23.0447C58.7873 24.322 58.0781 24.6754 55.8526 24.7934C54.3167 24.8719 53.9424 24.9508 53.8045 25.2454C53.2334 26.2673 54.3167 26.562 57.7436 26.2476C60.6779 25.9921 61.3673 25.8156 62.5884 24.9706C64.6366 23.5754 65.2074 21.4527 65.2271 15.0859C65.2271 11.2739 65.1878 10.8807 64.853 10.468C64.4789 9.99658 64.4783 9.99652 59.26 9.93758Z" fill="white"/>
<path d="M69.9343 8.97462C69.1663 8.91567 68.6738 8.99442 68.1814 9.24988C67.0195 9.85904 66.98 10.1539 67.0391 19.1537C67.1179 28.7038 66.9013 27.9771 69.5993 27.9771C72.1989 27.9771 72.1204 28.1145 72.1204 23.3592V19.527H72.8886C73.7353 19.5269 74.1882 19.1538 73.9914 18.5841C73.8733 18.1911 73.3609 17.9552 72.5731 17.9552H72.1204V10.2912L71.5688 9.68237C71.0961 9.15182 70.8402 9.03358 69.9343 8.97462Z" fill="white"/>
<path d="M80.8448 9.89838C75.5277 9.89838 74.6611 9.93776 74.405 10.2128C74.0309 10.5665 74.0306 10.6058 74.2865 11.0969C74.4441 11.372 74.7003 11.4706 75.3698 11.4706H76.2365L75.8425 12.1387C75.2517 13.1411 75.035 15.6368 75.1138 21.0796C75.1531 24.7729 75.232 26.0505 75.4288 26.2476C75.803 26.6209 79.4264 26.6013 79.86 26.228C80.1555 25.9922 80.1951 25.2455 80.1951 19.0949C80.1951 14.7327 80.274 12.0995 80.3921 11.8439C80.7073 11.274 81.5342 11.3527 81.7705 11.9815C81.8887 12.277 81.9676 15.3227 81.9676 19.213C81.9676 25.2445 82.0069 25.992 82.3022 26.228C82.7552 26.621 86.1233 26.6013 86.5763 26.228C86.8715 25.9724 86.911 25.382 86.8519 19.547C86.7928 13.3376 86.7728 13.1212 86.3593 12.3156L85.9066 11.4902L86.8519 11.431C87.738 11.372 87.7776 11.3327 87.8366 10.7629C87.8957 10.2521 87.8167 10.1147 87.4426 10.0164C87.1863 9.95747 84.2321 9.89838 80.8448 9.89838Z" fill="white"/>
<path d="M91.2041 8.97462C90.4362 8.91571 89.9439 8.99448 89.4516 9.24988C88.2896 9.85905 88.2502 10.1538 88.3093 19.1537C88.3881 28.704 88.1713 27.9771 90.8695 27.9771C93.4691 27.9771 93.3902 28.1145 93.3902 23.3592V19.527H94.1584C95.0052 19.527 95.4581 19.1539 95.2612 18.5841C95.143 18.1911 94.6311 17.9552 93.8433 17.9552H93.3902V10.2912L92.839 9.68237C92.3663 9.1518 92.11 9.03358 91.2041 8.97462Z" fill="white"/>
</svg>
