<svg width="32" height="32" viewBox="0 0 32 32" fill="none" xmlns="http://www.w3.org/2000/svg">
<path d="M5.33329 26.6666C4.59996 26.6666 3.97218 26.4055 3.44996 25.8832C2.92774 25.361 2.66663 24.7332 2.66663 23.9999V7.99992C2.66663 7.26658 2.92774 6.63881 3.44996 6.11659C3.97218 5.59436 4.59996 5.33325 5.33329 5.33325H26.6666C27.4 5.33325 28.0277 5.59436 28.55 6.11659C29.0722 6.63881 29.3333 7.26658 29.3333 7.99992V23.9999C29.3333 24.7332 29.0722 25.361 28.55 25.8832C28.0277 26.4055 27.4 26.6666 26.6666 26.6666H5.33329ZM16 17.3332L26.6666 10.6666V7.99992L16 14.6666L5.33329 7.99992V10.6666L16 17.3332Z" fill="#D9D9D9"/>
</svg>
