<svg width="40" height="40" viewBox="0 0 40 40" fill="none" xmlns="http://www.w3.org/2000/svg">
<path d="M20.0001 19.9999C20.9167 19.9999 21.7015 19.6735 22.3542 19.0208C23.007 18.368 23.3334 17.5833 23.3334 16.6666C23.3334 15.7499 23.007 14.9652 22.3542 14.3124C21.7015 13.6596 20.9167 13.3333 20.0001 13.3333C19.0834 13.3333 18.2987 13.6596 17.6459 14.3124C16.9931 14.9652 16.6667 15.7499 16.6667 16.6666C16.6667 17.5833 16.9931 18.368 17.6459 19.0208C18.2987 19.6735 19.0834 19.9999 20.0001 19.9999ZM20.0001 36.6666C15.5279 32.861 12.1876 29.3263 9.97925 26.0624C7.77091 22.7985 6.66675 19.7777 6.66675 16.9999C6.66675 12.8333 8.00703 9.51381 10.6876 7.04159C13.3681 4.56936 16.4723 3.33325 20.0001 3.33325C23.5279 3.33325 26.632 4.56936 29.3126 7.04159C31.9931 9.51381 33.3334 12.8333 33.3334 16.9999C33.3334 19.7777 32.2292 22.7985 30.0209 26.0624C27.8126 29.3263 24.4723 32.861 20.0001 36.6666Z" fill="#FF4238"/>
</svg>
