<svg width="15" height="16" viewBox="0 0 15 16" fill="none" xmlns="http://www.w3.org/2000/svg">
<path d="M3.125 13.625C2.78125 13.625 2.48698 13.5026 2.24219 13.2578C1.9974 13.013 1.875 12.7188 1.875 12.375V3.625C1.875 3.28125 1.9974 2.98698 2.24219 2.74219C2.48698 2.4974 2.78125 2.375 3.125 2.375H7.5V3.625H3.125V12.375H11.875V8H13.125V12.375C13.125 12.7188 13.0026 13.013 12.7578 13.2578C12.513 13.5026 12.2188 13.625 11.875 13.625H3.125ZM6.0625 10.3125L5.1875 9.4375L11 3.625H8.75V2.375H13.125V6.75H11.875V4.5L6.0625 10.3125Z" fill="#333333"/>
</svg>
