<svg width="30" height="30" viewBox="0 0 30 30" fill="none" xmlns="http://www.w3.org/2000/svg">
<rect width="30" height="30" rx="15" fill="#F7F7FB"/>
<path d="M11.1952 16.3494C13.3798 14.5344 16.6199 14.5342 18.8046 16.349L19.2684 16.7341C20.8503 18.0483 20.4581 20.4994 18.5384 21.2967C16.2804 22.2346 13.7193 22.2343 11.4614 21.2964C9.54189 20.499 9.14979 18.0486 10.7315 16.7345L11.1952 16.3494Z" fill="#D9D9D9"/>
<path d="M15.0001 8C16.721 8 18.1161 9.3401 18.1161 10.9932C18.1161 12.6463 16.721 13.9864 15.0001 13.9864C13.2793 13.9863 11.8841 12.6463 11.8841 10.9932C11.8841 9.34014 13.2793 8.00006 15.0001 8Z" fill="#D9D9D9"/>
</svg>
