<svg width="14" height="14" viewBox="0 0 14 14" fill="none" xmlns="http://www.w3.org/2000/svg">
<path d="M6.986 11.7853C5.65299 11.7853 4.5222 11.321 3.59363 10.3924C2.66506 9.46388 2.20078 8.33309 2.20078 7.00007C2.20078 5.66706 2.66506 4.53627 3.59363 3.6077C4.5222 2.67913 5.65299 2.21484 6.986 2.21484C7.67784 2.21484 8.33754 2.35689 8.96511 2.64097C9.59268 2.92496 10.1299 3.33275 10.5767 3.86436V2.21484H11.7992V6.46909H7.54148V5.25007H9.97063C9.65952 4.71953 9.23937 4.30221 8.71019 3.99809C8.18111 3.69398 7.60638 3.54193 6.986 3.54193C6.02545 3.54193 5.20898 3.87812 4.53659 4.55051C3.8641 5.223 3.52786 6.03952 3.52786 7.00007C3.52786 7.96063 3.8641 8.77715 4.53659 9.44964C5.20898 10.122 6.02545 10.4582 6.986 10.4582C7.72071 10.4582 8.38537 10.2478 8.97998 9.82705C9.57459 9.40627 9.99459 8.85284 10.24 8.16674H11.6289C11.3543 9.22986 10.7874 10.0987 9.92805 10.7734C9.0687 11.448 8.08802 11.7853 6.986 11.7853Z" fill="#333333"/>
</svg>
