<svg width="15" height="16" viewBox="0 0 15 16" fill="none" xmlns="http://www.w3.org/2000/svg">
<path d="M3.75 9.25H5.65625L8.78125 6.125C8.875 6.03125 8.94531 5.92448 8.99219 5.80469C9.03906 5.6849 9.0625 5.56771 9.0625 5.45312C9.0625 5.33854 9.03646 5.22656 8.98437 5.11719C8.93229 5.00781 8.86458 4.90625 8.78125 4.8125L8.21875 4.21875C8.125 4.125 8.02083 4.05469 7.90625 4.00781C7.79167 3.96094 7.67187 3.9375 7.54687 3.9375C7.43229 3.9375 7.3151 3.96094 7.19531 4.00781C7.07552 4.05469 6.96875 4.125 6.875 4.21875L3.75 7.34375V9.25ZM4.6875 8.3125V7.71875L6.26562 6.14062L6.57812 6.42187L6.85937 6.73437L5.28125 8.3125H4.6875ZM6.57812 6.42187L6.85937 6.73437L6.26562 6.14062L6.57812 6.42187ZM6.98437 9.25H11.25V8H8.23437L6.98437 9.25ZM1.25 14.25V3C1.25 2.65625 1.3724 2.36198 1.61719 2.11719C1.86198 1.8724 2.15625 1.75 2.5 1.75H12.5C12.8437 1.75 13.138 1.8724 13.3828 2.11719C13.6276 2.36198 13.75 2.65625 13.75 3V10.5C13.75 10.8437 13.6276 11.138 13.3828 11.3828C13.138 11.6276 12.8437 11.75 12.5 11.75H3.75L1.25 14.25ZM3.21875 10.5H12.5V3H2.5V11.2031L3.21875 10.5Z" fill="#333333"/>
</svg>
