<svg width="20" height="21" viewBox="0 0 20 21" fill="none" xmlns="http://www.w3.org/2000/svg">
<path d="M12.6752 14.4465L13.9565 13.1752L10.9081 10.1269V6.35836H9.0919V10.8611L12.6752 14.4465ZM10 19.0027C8.82072 19.0027 7.71419 18.7797 6.68044 18.3336C5.64655 17.8875 4.74725 17.2821 3.98252 16.5175C3.21794 15.7528 2.61259 14.8535 2.16648 13.8196C1.72037 12.7859 1.49731 11.6793 1.49731 10.5C1.49731 9.32072 1.72037 8.21419 2.16648 7.18044C2.61259 6.14655 3.21794 5.24724 3.98252 4.48252C4.74725 3.71794 5.64655 3.11259 6.68044 2.66648C7.71419 2.22037 8.82072 1.99731 10 1.99731C11.1793 1.99731 12.2859 2.22037 13.3196 2.66648C14.3535 3.11259 15.2528 3.71794 16.0175 4.48252C16.7821 5.24724 17.3875 6.14655 17.8336 7.18044C18.2797 8.21419 18.5027 9.32072 18.5027 10.5C18.5027 11.6793 18.2797 12.7859 17.8336 13.8196C17.3875 14.8535 16.7821 15.7528 16.0175 16.5175C15.2528 17.2821 14.3535 17.8875 13.3196 18.3336C12.2859 18.7797 11.1793 19.0027 10 19.0027ZM10 17.1069C11.8306 17.1069 13.3894 16.4643 14.6765 15.179C15.9634 13.8936 16.6069 12.3339 16.6069 10.5C16.6069 8.66613 15.9634 7.10648 14.6765 5.82106C13.3895 4.53579 11.8307 3.89315 10 3.89315C8.16947 3.89315 6.61065 4.53579 5.32356 5.82106C4.03662 7.10648 3.39315 8.66613 3.39315 10.5C3.39315 12.3339 4.03662 13.8936 5.32356 15.179C6.61051 16.4643 8.16933 17.1069 10 17.1069Z" fill="#333333"/>
</svg>
