<svg width="15" height="16" viewBox="0 0 15 16" fill="none" xmlns="http://www.w3.org/2000/svg">
<path d="M4.375 11.916V10.666H8.8125C9.46875 10.666 10.0391 10.4577 10.5234 10.041C11.0078 9.62435 11.25 9.10352 11.25 8.47852C11.25 7.85352 11.0078 7.33268 10.5234 6.91602C10.0391 6.49935 9.46875 6.29102 8.8125 6.29102H4.875L6.5 7.91602L5.625 8.79102L2.5 5.66602L5.625 2.54102L6.5 3.41602L4.875 5.04102H8.8125C9.82292 5.04102 10.6901 5.36914 11.4141 6.02539C12.138 6.68164 12.5 7.49935 12.5 8.47852C12.5 9.45768 12.138 10.2754 11.4141 10.9316C10.6901 11.5879 9.82292 11.916 8.8125 11.916H4.375Z" fill="#333333"/>
</svg>
