<svg width="24" height="24" viewBox="0 0 24 24" fill="none" xmlns="http://www.w3.org/2000/svg">
<path d="M11.0537 11.9998L15.127 16.0728C15.2653 16.2113 15.3362 16.3854 15.3395 16.595C15.3427 16.8045 15.2718 16.9818 15.127 17.1268C14.982 17.2716 14.8063 17.344 14.6 17.344C14.3937 17.344 14.218 17.2716 14.073 17.1268L9.57875 12.6325C9.48525 12.5389 9.41925 12.4401 9.38075 12.3363C9.34225 12.2325 9.323 12.1203 9.323 11.9998C9.323 11.8793 9.34225 11.7671 9.38075 11.6633C9.41925 11.5595 9.48525 11.4607 9.57875 11.367L14.073 6.87276C14.2115 6.73442 14.3856 6.66359 14.5952 6.66026C14.8047 6.65709 14.982 6.72792 15.127 6.87276C15.2718 7.01776 15.3442 7.19342 15.3442 7.39976C15.3442 7.60609 15.2718 7.78176 15.127 7.92676L11.0537 11.9998Z" fill="#767676"/>
</svg>
