<svg width="24" height="24" viewBox="0 0 24 24" fill="none" xmlns="http://www.w3.org/2000/svg">
<path d="M11.0537 12L15.127 16.073C15.2653 16.2115 15.3362 16.3856 15.3395 16.5952C15.3427 16.8047 15.2718 16.982 15.127 17.127C14.982 17.2718 14.8063 17.3442 14.6 17.3442C14.3937 17.3442 14.218 17.2718 14.073 17.127L9.57874 12.6327C9.48524 12.5391 9.41924 12.4403 9.38074 12.3365C9.34224 12.2327 9.32299 12.1205 9.32299 12C9.32299 11.8795 9.34224 11.7673 9.38074 11.6635C9.41924 11.5597 9.48524 11.4609 9.57874 11.3672L14.073 6.87299C14.2115 6.73465 14.3856 6.66382 14.5952 6.66049C14.8047 6.65732 14.982 6.72815 15.127 6.87299C15.2718 7.01799 15.3442 7.19365 15.3442 7.39999C15.3442 7.60632 15.2718 7.78199 15.127 7.92699L11.0537 12Z" fill="#333333"/>
</svg>
