<svg width="24" height="24" viewBox="0 0 24 24" fill="none" xmlns="http://www.w3.org/2000/svg">
<path d="M7.73071 12.3396L11.804 16.4126C11.9423 16.5511 12.0132 16.7252 12.0165 16.9348C12.0197 17.1443 11.9488 17.3216 11.804 17.4666C11.659 17.6114 11.4833 17.6838 11.277 17.6838C11.0707 17.6838 10.895 17.6114 10.75 17.4666L6.25575 12.9723C6.16225 12.8787 6.09625 12.7799 6.05775 12.6761C6.01925 12.5723 6 12.4601 6 12.3396C6 12.2191 6.01925 12.1069 6.05775 12.0031C6.09625 11.8993 6.16225 11.8005 6.25575 11.7068L10.75 7.2126C10.8885 7.07426 11.0626 7.00343 11.2722 7.0001C11.4817 6.99693 11.659 7.06776 11.804 7.2126C11.9488 7.3576 12.0212 7.53326 12.0212 7.7396C12.0212 7.94593 11.9488 8.1216 11.804 8.2666L7.73071 12.3396Z" fill="#767676"/>
<path d="M13.752 12.3396L17.8252 16.4126C17.9635 16.5511 18.0345 16.7252 18.0378 16.9348C18.041 17.1443 17.97 17.3216 17.8252 17.4666C17.6802 17.6114 17.5046 17.6838 17.2983 17.6838C17.092 17.6838 16.9162 17.6114 16.7712 17.4666L12.277 12.9723C12.1835 12.8787 12.1175 12.7799 12.079 12.6761C12.0405 12.5723 12.0212 12.4601 12.0212 12.3396C12.0212 12.2191 12.0405 12.1069 12.079 12.0031C12.1175 11.8993 12.1835 11.8005 12.277 11.7068L16.7712 7.2126C16.9097 7.07426 17.0838 7.00343 17.2934 7.0001C17.5029 6.99693 17.6802 7.06776 17.8252 7.2126C17.97 7.3576 18.0424 7.53326 18.0424 7.7396C18.0424 7.94593 17.97 8.1216 17.8252 8.2666L13.752 12.3396Z" fill="#767676"/>
</svg>
