<svg width="25" height="25" viewBox="0 0 25 25" fill="none" xmlns="http://www.w3.org/2000/svg">
<rect width="25" height="25" rx="8" fill="#FF4238"/>
<path d="M11.514 5.28203C11.1376 5.45438 10.9181 5.70508 10.8083 6.04978L10.6672 6.56684H8.25236C5.79046 6.56684 5.24163 6.67652 5.24163 7.16224C5.24163 7.6793 5.58661 7.82031 6.88812 7.82031H8.15827L7.35855 8.65074C6.48042 9.54384 6.13544 10.4213 6.11976 11.7374C6.10408 12.8812 6.27657 12.9909 8.04851 12.9909C8.87959 12.9909 9.66363 12.9125 9.78908 12.8342C9.96157 12.7245 10.04 12.2701 10.1027 11.0793C10.1968 9.32448 10.4006 8.74475 11.0906 8.22769C11.7021 7.77331 13.427 7.69497 14.164 8.08668C15.1362 8.58807 15.3244 9.02678 15.4185 10.954C15.4969 12.2545 15.5753 12.7245 15.7478 12.8342C15.8732 12.9125 16.6573 12.9909 17.4884 12.9909C19.2603 12.9909 19.4328 12.8812 19.4171 11.7374C19.4014 10.3899 19.0565 9.54384 18.1627 8.63507L17.3316 7.82031H18.6331C19.9503 7.82031 20.2952 7.69497 20.2952 7.16224C20.2952 6.67652 19.7464 6.56684 17.2688 6.56684H14.854L14.7129 6.04978C14.5247 5.42305 13.7563 5 12.7684 5C12.3764 5 11.8119 5.12535 11.514 5.28203Z" fill="white"/>
<path d="M5.08483 14.3854C5.00642 14.5577 4.97506 14.8084 5.0221 14.9338C5.10051 15.1531 5.52389 15.1845 7.92306 15.1845H10.7299V16.4223L5.79046 16.5163L5.74342 16.8923C5.63366 17.6601 5.86887 17.6914 10.9965 17.6914H15.7478V18.8822C15.7478 20.0103 15.9046 20.6214 16.2809 20.8564C16.375 20.9191 17.065 20.9818 17.802 20.9818C19.6994 20.9818 19.7307 20.9348 19.7935 18.8822C19.8562 17.2997 19.8405 17.2214 19.4485 16.8296C19.0721 16.4536 18.9937 16.4379 16.9239 16.4379H14.8069V15.1845H17.6138C20.013 15.1845 20.4364 15.1531 20.5148 14.9338C20.5618 14.8084 20.5305 14.5577 20.4521 14.3854C20.2952 14.1033 20.0287 14.0877 12.7684 14.0877C5.50821 14.0877 5.24163 14.1033 5.08483 14.3854Z" fill="white"/>
</svg>
