<svg width="12" height="13" viewBox="0 0 12 13" fill="none" xmlns="http://www.w3.org/2000/svg">
<path d="M6 6.5C6.275 6.5 6.51042 6.40208 6.70625 6.20625C6.90208 6.01042 7 5.775 7 5.5C7 5.225 6.90208 4.98958 6.70625 4.79375C6.51042 4.59792 6.275 4.5 6 4.5C5.725 4.5 5.48958 4.59792 5.29375 4.79375C5.09792 4.98958 5 5.225 5 5.5C5 5.775 5.09792 6.01042 5.29375 6.20625C5.48958 6.40208 5.725 6.5 6 6.5ZM6 11.5C4.65833 10.3583 3.65625 9.29792 2.99375 8.31875C2.33125 7.33958 2 6.43333 2 5.6C2 4.35 2.40208 3.35417 3.20625 2.6125C4.01042 1.87083 4.94167 1.5 6 1.5C7.05833 1.5 7.98958 1.87083 8.79375 2.6125C9.59792 3.35417 10 4.35 10 5.6C10 6.43333 9.66875 7.33958 9.00625 8.31875C8.34375 9.29792 7.34167 10.3583 6 11.5Z" fill="#333333"/>
</svg>
